<svg xmlns="http://www.w3.org/2000/svg" width="64" height="26" viewBox="0 0 64 26">
  <!-- [2026-07-19 도형] 지형 위 풀 포기 — zone1(시골) 고정 발판/바닥 장식용.
       흑백 게임이므로 회색 명도만으로 그린다. 노멀맵은 generate_normal_maps.gd 가 생성. -->
  <g fill="none" stroke-linecap="round">
    <path d="M6 24 C7 16 4 12 8 4"   stroke="#9a9a9a" stroke-width="2.4"/>
    <path d="M12 25 C13 18 10 13 15 7" stroke="#c8c8c8" stroke-width="2.0"/>
    <path d="M18 24 C18 15 21 12 19 3" stroke="#8a8a8a" stroke-width="2.6"/>
    <path d="M25 25 C26 19 23 15 27 9" stroke="#b5b5b5" stroke-width="2.0"/>
    <path d="M32 24 C31 15 35 11 33 4" stroke="#d6d6d6" stroke-width="2.2"/>
    <path d="M39 25 C40 18 37 14 42 8" stroke="#909090" stroke-width="2.4"/>
    <path d="M46 24 C46 16 49 12 47 5" stroke="#c0c0c0" stroke-width="2.0"/>
    <path d="M53 25 C54 19 51 15 56 10" stroke="#a5a5a5" stroke-width="2.2"/>
    <path d="M58 24 C59 17 57 13 60 6" stroke="#8f8f8f" stroke-width="2.0"/>
  </g>
</svg>
